<svg xmlns="http://www.w3.org/2000/svg" width="841.112" height="221.919" viewBox="0 0 841.112 221.919">
  <g id="Group_1211" data-name="Group 1211" transform="translate(-848.888 -265.041)">
    <g id="Component_47_1" data-name="Component 47 – 1" transform="translate(848.888 265.042)">
      <path id="Path_4273" data-name="Path 4273" d="M959.417,296.985a78.978,78.978,0,0,0-64.946,34.706l13.038,12.9a61.054,61.054,0,1,1,.344,63.382l-12.9,13.038a79,79,0,1,0,64.461-124.023" transform="translate(-848.888 -265.042)" fill="#1f2022"/>
      <path id="Path_4274" data-name="Path 4274" d="M1040.847,421.65a93,93,0,1,1,.466-90.463l13.175-13.04a110.959,110.959,0,1,0-.6,116.678Z" transform="translate(-848.888 -265.042)" fill="#1f2022"/>
      <path id="Path_4275" data-name="Path 4275" d="M1390.661,413.936c-21.534,0-39.054-16.938-39.054-37.757s17.52-37.756,39.054-37.756,39.052,16.938,39.052,37.756-17.519,37.757-39.052,37.757m39.052-78.637a58.458,58.458,0,0,0-39.052-14.8c-31.758,0-57.6,24.98-57.6,55.683s25.838,55.683,57.6,55.683,57.594-24.98,57.594-55.683c0-.87-.027-1.734-.068-2.594h.068V288.1h-18.542Z" transform="translate(-848.888 -265.042)" fill="#1f2022"/>
      <path id="Path_4276" data-name="Path 4276" d="M1521.48,338.521a39.288,39.288,0,0,1,34.357,19.827h-68.714a39.288,39.288,0,0,1,34.357-19.827m0,75.5c-21.53,0-39.047-16.935-39.047-37.75h96.633c0-30.7-25.834-55.674-57.586-55.674s-57.586,24.975-57.586,55.674,25.833,55.673,57.586,55.673a58.216,58.216,0,0,0,40.72-16.306l-13.11-12.673a39.478,39.478,0,0,1-27.61,11.056" transform="translate(-848.888 -265.042)" fill="#1f2022"/>
      <path id="Path_4277" data-name="Path 4277" d="M1259.84,413.935c-21.534,0-39.053-16.938-39.053-37.756s17.519-37.757,39.053-37.757,39.053,16.938,39.053,37.757-17.519,37.756-39.053,37.756m0-93.439c-31.758,0-57.595,24.979-57.595,55.683s25.837,55.683,57.595,55.683,57.6-24.98,57.6-55.683S1291.6,320.5,1259.84,320.5" transform="translate(-848.888 -265.042)" fill="#1f2022"/>
      <path id="Path_4278" data-name="Path 4278" d="M1650.328,320.6A58.38,58.38,0,0,1,1690,335.99l-13.093,12.658a39.6,39.6,0,0,0-26.579-10.14c-21.514,0-39.018,16.922-39.018,37.721s17.5,37.723,39.018,37.723a39.6,39.6,0,0,0,26.579-10.141L1690,416.47a58.379,58.379,0,0,1-39.672,15.392c-31.729,0-57.543-24.956-57.543-55.633S1618.6,320.6,1650.328,320.6" transform="translate(-848.888 -265.042)" fill="#1f2022"/>
      <path id="Path_4279" data-name="Path 4279" d="M1148.675,320.6a58.382,58.382,0,0,1,39.672,15.393l-13.094,12.658a39.6,39.6,0,0,0-26.578-10.14c-21.514,0-39.018,16.922-39.018,37.721s17.5,37.723,39.018,37.723a39.6,39.6,0,0,0,26.579-10.141l13.093,12.659a58.381,58.381,0,0,1-39.672,15.392c-31.729,0-57.544-24.956-57.544-55.633s25.815-55.632,57.544-55.632" transform="translate(-848.888 -265.042)" fill="#1f2022"/>
    </g>
  </g>
</svg>
